<svg xmlns="http://www.w3.org/2000/svg" version="1.1" xmlns:xlink="http://www.w3.org/1999/xlink" width="512" height="512" x="0" y="0" viewBox="0 0 64 64" style="enable-background:new 0 0 512 512" xml:space="preserve" class=""><g><path d="M34.447 58h-23.45a3.003 3.003 0 0 1-3-3V13a1 1 0 0 0-2 0v42a5.006 5.006 0 0 0 5 5h23.45a1 1 0 0 0 0-2zM6.997 10a1 1 0 0 0 1-1 3.003 3.003 0 0 1 3-3h19a2.004 2.004 0 0 1 2 2v5a5.006 5.006 0 0 0 5 5h5a2.004 2.004 0 0 1 2 2v11a1 1 0 0 0 2 0V20a3.973 3.973 0 0 0-1.173-2.827l-12-12A3.973 3.973 0 0 0 29.997 4h-19a5.006 5.006 0 0 0-5 5 1 1 0 0 0 1 1zm27-.826L40.823 16h-3.826a3.003 3.003 0 0 1-3-3z" fill="#ffffff" opacity="1" data-original="#000000" class=""></path><path d="M41.997 23a1 1 0 0 0-1-1H19.474a1 1 0 0 0 0 2h21.523a1 1 0 0 0 1-1zM40.437 32a1 1 0 0 0-1-1h-19.96a1 1 0 0 0 0 2h19.96a1 1 0 0 0 1-1zM31.177 41a1 1 0 0 0-1-1h-10.7a1 1 0 0 0 0 2h10.7a1 1 0 0 0 1-1zM29.296 49h-9.82a1 1 0 0 0 0 2h9.82a1 1 0 1 0 0-2zM16.707 20.63a1.008 1.008 0 0 0-1.42 0l-2.62 2.62-.96-.96a1.004 1.004 0 0 0-1.42 1.42l1.67 1.66a.978.978 0 0 0 1.41 0l3.34-3.33a.996.996 0 0 0 0-1.41zM16.707 38.63a1.008 1.008 0 0 0-1.42 0l-2.62 2.62-.96-.96a1.004 1.004 0 0 0-1.42 1.42l1.67 1.66a.978.978 0 0 0 1.41 0l3.34-3.33a.996.996 0 0 0 0-1.41zM16.707 29.63a1.008 1.008 0 0 0-1.42 0l-2.62 2.62-.96-.96a1.004 1.004 0 0 0-1.42 1.42l1.67 1.66a.978.978 0 0 0 1.41 0l3.34-3.33a.996.996 0 0 0 0-1.41zM15.287 47.63l-2.62 2.62-.96-.96a1.004 1.004 0 0 0-1.42 1.42l1.67 1.66a.978.978 0 0 0 1.41 0l3.34-3.33a.996.996 0 0 0 0-1.41 1.008 1.008 0 0 0-1.42 0zM45.003 34a13 13 0 1 0 13 13 13.014 13.014 0 0 0-13-13zm0 24a10.948 10.948 0 0 1-6.975-2.502l-.011-1.978a2.47 2.47 0 0 1 1.704-2.358l3.773-1.263a4.8 4.8 0 0 1 3.005-.004l3.793 1.269a2.47 2.47 0 0 1 1.698 2.362l.012 1.954A10.95 10.95 0 0 1 45.003 58zm-3.16-13.506a3.16 3.16 0 1 1 3.167 3.16H45a3.164 3.164 0 0 1-3.158-3.16zm12.133 8.848a4.452 4.452 0 0 0-3.056-4.077l-2.583-.864a5.161 5.161 0 1 0-6.667 0l-2.578.862a4.456 4.456 0 0 0-3.06 4.079 11 11 0 1 1 17.944 0z" fill="#ffffff" opacity="1" data-original="#000000" class=""></path></g></svg>